<svg xmlns="http://www.w3.org/2000/svg" aria-hidden="true" style="position:absolute;width:0;height:0;overflow:hidden">
  <defs>
    <symbol id="icon-facebook-1" viewBox="0 0 16 16">
      <path fill="#f4f4fd" d="M10.665 2.657h1.461V.113A18.755 18.755 0 0 0 9.998 0C7.892 0 6.449 1.325 6.449 3.759V6H4.125v2.844h2.324V16h2.849V8.845h2.23l.354-2.844H9.297V4.042c.001-.822.222-1.385 1.367-1.385z" style="fill:var(--color1, #f4f4fd)"/>
    </symbol>
    <symbol id="icon-instagram-2" viewBox="0 0 16 16">
      <path fill="#f4f4fd" d="M15.985 4.704c-.037-.85-.175-1.435-.372-1.941a3.904 3.904 0 0 0-.925-1.419 3.944 3.944 0 0 0-1.416-.922C12.763.225 12.181.088 11.331.05 10.474.009 10.203 0 8.03 0S5.586.009 4.732.047c-.85.037-1.435.175-1.941.372a3.904 3.904 0 0 0-1.419.925c-.406.4-.722.885-.922 1.416-.197.51-.334 1.091-.372 1.941-.041.856-.05 1.128-.05 3.301s.009 2.444.047 3.297c.037.85.175 1.435.372 1.941.203.538.519 1.019.925 1.419.4.406.885.722 1.416.922.509.197 1.091.334 1.941.372.853.038 1.125.047 3.298.047s2.444-.009 3.297-.047c.85-.037 1.435-.175 1.941-.372a4.095 4.095 0 0 0 2.341-2.341c.197-.509.334-1.091.372-1.941.037-.853.047-1.125.047-3.297s-.003-2.444-.041-3.298zm-1.441 6.532c-.034.781-.166 1.203-.275 1.485a2.655 2.655 0 0 1-1.519 1.519c-.281.109-.706.241-1.485.275-.844.038-1.097.047-3.232.047s-2.391-.009-3.232-.047c-.781-.034-1.203-.165-1.485-.275a2.453 2.453 0 0 1-.919-.597 2.477 2.477 0 0 1-.597-.919c-.109-.281-.241-.706-.275-1.485-.038-.844-.047-1.097-.047-3.232s.009-2.391.047-3.232c.034-.781.166-1.203.275-1.485.128-.347.331-.663.6-.919.259-.266.572-.469.919-.597.281-.109.706-.241 1.485-.275.844-.037 1.097-.047 3.232-.047 2.138 0 2.391.009 3.232.047.781.034 1.203.166 1.485.275.347.128.663.331.919.597.266.259.469.572.597.919.109.281.241.706.275 1.485.037.844.047 1.097.047 3.232s-.009 2.385-.047 3.229z" style="fill:var(--color1, #f4f4fd)"/>
      <path fill="#f4f4fd" d="M8.03 3.891a4.111 4.111 0 0 0 0 8.22 4.111 4.111 0 0 0 0-8.22zm0 6.777a2.667 2.667 0 1 1 .001-5.333 2.667 2.667 0 0 1-.001 5.333zM13.262 3.729a.96.96 0 1 1-1.92 0 .96.96 0 0 1 1.92 0z" style="fill:var(--color1, #f4f4fd)"/>
    </symbol>
    <symbol id="icon-linkedin-1" viewBox="0 0 16 16">
      <path fill="#f4f4fd" d="M15.996 16v-.001H16v-5.868c0-2.871-.618-5.082-3.974-5.082-1.613 0-2.696.885-3.138 1.725h-.047V5.317H5.659v10.682h3.313V10.71c0-1.393.264-2.739 1.989-2.739 1.699 0 1.725 1.589 1.725 2.829v5.201h3.31zM.264 5.318h3.317V16H.264V5.318zM1.921 0C.86 0 0 .861 0 1.921S.861 3.86 1.921 3.86c1.061 0 1.921-.879 1.921-1.939S2.981 0 1.921 0z" style="fill:var(--color1, #f4f4fd)"/>
    </symbol>
    <symbol id="icon-twitter-1" viewBox="0 0 16 16">
      <path fill="#f4f4fd" d="M16 3.039a6.839 6.839 0 0 1-1.89.518 3.262 3.262 0 0 0 1.443-1.813 6.555 6.555 0 0 1-2.08.794 3.28 3.28 0 0 0-5.674 2.243c0 .26.022.51.076.748a9.284 9.284 0 0 1-6.761-3.431 3.285 3.285 0 0 0 1.008 4.384A3.24 3.24 0 0 1 .64 6.078v.036a3.295 3.295 0 0 0 2.628 3.223 3.274 3.274 0 0 1-.86.108 2.9 2.9 0 0 1-.621-.056 3.311 3.311 0 0 0 3.065 2.285 6.59 6.59 0 0 1-4.067 1.399c-.269 0-.527-.012-.785-.045A9.234 9.234 0 0 0 5.032 14.5c6.036 0 9.336-5 9.336-9.334 0-.145-.005-.285-.012-.424A6.544 6.544 0 0 0 16 3.039z" style="fill:var(--color1, #f4f4fd)"/>
    </symbol>
  </defs>
</svg>
